<svg xmlns="http://www.w3.org/2000/svg" xmlns:xlink="http://www.w3.org/1999/xlink" version="1.1" x="0px" y="0px" viewBox="0 0 48 60" enable-background="new 0 0 48 48" xml:space="preserve"><path fill="#000000" d="M7.5,42.5l13.8-13.8c0.5-0.5,1.3-0.1,1.3,0.5v12.1c0,1.5,1.8,2.2,2.8,1.2l17.4-17.4c0.6-0.6,0.6-1.7,0-2.3  L25.4,5.5c-1-1-2.8-0.3-2.8,1.2v12.1c0,0.7-0.8,1-1.3,0.5L7.5,5.5c-1-1-2.8-0.3-2.8,1.2v34.7C4.7,42.8,6.5,43.6,7.5,42.5z"/><text x="0" y="63" fill="#000000" font-size="5px" font-weight="bold" font-family="'Helvetica Neue', Helvetica, Arial-Unicode, Arial, Sans-serif">Created by Creative Stall</text><text x="0" y="68" fill="#000000" font-size="5px" font-weight="bold" font-family="'Helvetica Neue', Helvetica, Arial-Unicode, Arial, Sans-serif">from the Noun Project</text></svg>