<svg xmlns="http://www.w3.org/2000/svg" xmlns:xlink="http://www.w3.org/1999/xlink" version="1.1" x="0px" y="0px" viewBox="0 0 100 125" enable-background="new 0 0 100 100" xml:space="preserve"><path d="M75.545,7.974v84.587c0,4.108-3.331,7.439-7.439,7.439H32.417c-4.109,0-7.439-3.331-7.439-7.439v-59.67H24.83  c-0.17,0-0.308-0.138-0.308-0.308v-2.962c0-0.17,0.138-0.308,0.308-0.308h0.147v-5.168H24.83c-0.17,0-0.308-0.138-0.308-0.308  v-2.962c0-0.17,0.138-0.308,0.308-0.308h0.147v-4.541h-0.372c-0.083,0-0.15-0.067-0.15-0.149v-4.334c0-0.083,0.067-0.15,0.15-0.15  h0.372v-3.42c0-4.109,3.33-7.439,7.439-7.439h26.474V0.123C58.891,0.055,58.945,0,59.014,0h7.822c0.068,0,0.123,0.055,0.123,0.123  v0.411h1.146C72.214,0.534,75.545,3.864,75.545,7.974z M50.261,86.309c-2.691,0-4.874,2.183-4.874,4.874s2.183,4.874,4.874,4.874  c2.692,0,4.874-2.183,4.874-4.874S52.953,86.309,50.261,86.309z M47.007,10h7.174c0.661,0,1.2-0.338,1.2-1c0-0.661-0.539-1-1.2-1  h-7.174c-0.662,0-1.2,0.339-1.2,1C45.807,9.662,46.345,10,47.007,10z M41.749,10.242c0.651,0,1.18-0.528,1.18-1.18  s-0.528-1.18-1.18-1.18s-1.18,0.528-1.18,1.18S41.098,10.242,41.749,10.242z M28.838,17v66h43V17H28.838z"/><text x="0" y="115" fill="#000000" font-size="5px" font-weight="bold" font-family="'Helvetica Neue', Helvetica, Arial-Unicode, Arial, Sans-serif">Created by Daniel</text><text x="0" y="120" fill="#000000" font-size="5px" font-weight="bold" font-family="'Helvetica Neue', Helvetica, Arial-Unicode, Arial, Sans-serif">from the Noun Project</text></svg>