<svg xmlns="http://www.w3.org/2000/svg" xmlns:xlink="http://www.w3.org/1999/xlink" version="1.1" x="0px" y="0px" viewBox="0 0 90 112.5" enable-background="new 0 0 90 90" xml:space="preserve"><path d="M248.5-190.5"/><path d="M66.637,66.703c-0.574-0.574-1.369-0.902-2.18-0.902c-0.094,0-0.188,0.02-0.281,0.029l-5.344-10.342  c0.723-0.948,0.863-2.271,0.246-3.379l-9.242-16.506c-0.018-0.031-0.041-0.055-0.061-0.084c-0.045-0.077-0.097-0.151-0.15-0.225  c-0.039-0.053-0.074-0.109-0.117-0.161c-0.034-0.039-0.068-0.076-0.105-0.114c-0.055-0.06-0.112-0.113-0.172-0.169  c-0.049-0.043-0.095-0.092-0.146-0.134c-0.048-0.039-0.099-0.074-0.149-0.11c-0.029-0.02-0.051-0.045-0.08-0.065  c-0.034-0.022-0.07-0.035-0.105-0.056c-0.055-0.032-0.106-0.068-0.163-0.099c-0.059-0.031-0.117-0.054-0.176-0.081  c-0.071-0.031-0.14-0.062-0.211-0.087l-0.001-0.002v-5.1l8.463,3.623c0.023,0.011,0.049,0.015,0.07,0.022  c0.018,0.005,0.031,0.011,0.047,0.014c0.043,0.01,0.09,0.015,0.133,0.015c0.035,0,0.068-0.002,0.1-0.007  c0.01-0.001,0.02-0.004,0.029-0.006c0.021-0.004,0.045-0.01,0.066-0.017c0.012-0.003,0.023-0.009,0.037-0.015  c0.018-0.006,0.035-0.014,0.055-0.023c0.012-0.005,0.023-0.013,0.035-0.02c0.018-0.01,0.035-0.021,0.051-0.033  c0.008-0.005,0.014-0.008,0.018-0.013l6.428-4.947c0.154-0.118,0.248-0.301,0.252-0.495l0.307-15.995  c0-0.002-0.002-0.003-0.002-0.005c0-0.016-0.002-0.032-0.002-0.048c0-0.014,0-0.028-0.002-0.042c-0.002-0.002,0-0.005-0.002-0.007  c0-0.013-0.004-0.023-0.006-0.036c-0.004-0.014-0.008-0.029-0.012-0.043c-0.002-0.015-0.01-0.028-0.014-0.042  c-0.004-0.014-0.008-0.027-0.014-0.04c-0.006-0.014-0.014-0.027-0.02-0.041c-0.008-0.012-0.014-0.025-0.021-0.038  c-0.006-0.013-0.014-0.024-0.023-0.036c-0.01-0.012-0.016-0.024-0.027-0.036c-0.008-0.011-0.018-0.021-0.027-0.032  c-0.01-0.011-0.02-0.022-0.031-0.033c-0.01-0.01-0.021-0.019-0.033-0.027c-0.01-0.01-0.021-0.02-0.035-0.028  c-0.01-0.009-0.023-0.016-0.035-0.023c-0.012-0.006-0.02-0.013-0.031-0.018c-0.002-0.002-0.006-0.003-0.01-0.005  c-0.012-0.006-0.023-0.012-0.037-0.018c-0.016-0.006-0.029-0.013-0.045-0.018c-0.004-0.001-0.006-0.002-0.01-0.004L47.91,5.312  l-0.039-1.427c0-0.001,0-0.002,0-0.003c0.014-0.106,0.021-0.216,0.019-0.327c-0.044-1.407-1.569-2.508-3.474-2.508l-0.079,0.001  c-1.111,0.018-2.149,0.423-2.778,1.083c-0.306,0.32-0.502,0.683-0.586,1.068c-0.004,0.011-0.006,0.023-0.009,0.034  c-0.005,0.025-0.01,0.05-0.014,0.075c-0.001,0.008-0.003,0.015-0.003,0.023l-0.002,0.027c-0.01,0.068-0.016,0.138-0.018,0.208  l-0.006,0.069c-0.001,0.023-0.002,0.048-0.001,0.072c0.003,0.101,0.014,0.201,0.033,0.3l0.018,1.398l-4.804,2.457  c-0.017,0.009-0.031,0.019-0.046,0.029c-0.01,0.005-0.018,0.009-0.026,0.015c-0.03,0.021-0.059,0.044-0.085,0.07  C36.004,7.981,36,7.987,35.994,7.993c-0.021,0.021-0.039,0.044-0.056,0.068c-0.007,0.009-0.013,0.019-0.02,0.029  c-0.015,0.024-0.028,0.048-0.04,0.074c-0.004,0.009-0.008,0.017-0.012,0.026c-0.015,0.034-0.026,0.069-0.033,0.105  c-0.003,0.008-0.003,0.018-0.005,0.027c-0.004,0.03-0.007,0.06-0.008,0.09c0,0.007-0.002,0.013-0.002,0.019v8.51l-0.747,0.445  c-0.272,0.109-0.538,0.237-0.792,0.39c-1.485,0.9-2.438,2.461-2.683,4.396c-0.238,1.879,0.227,3.895,1.306,5.676  c1.576,2.601,4.156,4.217,6.734,4.217c0.67,0,1.307-0.112,1.903-0.331c0.038-0.011,0.077-0.022,0.113-0.04l0.049-0.023  c0.209-0.085,0.413-0.183,0.612-0.295l0.158-0.075c0.018-0.009,0.035-0.019,0.053-0.03c0.209-0.125,0.409-0.267,0.599-0.422  l1.517-0.874c0.046-0.015,0.092-0.034,0.134-0.061c0.082-0.049,0.162-0.101,0.24-0.155l0.713-0.411v5.019  c-0.02,0.01-0.04,0.022-0.061,0.033c-0.01,0.006-0.02,0.008-0.03,0.014c-0.031,0.016-0.055,0.041-0.085,0.06  c-0.078,0.047-0.151,0.098-0.226,0.151c-0.053,0.038-0.109,0.075-0.159,0.117c-0.041,0.034-0.076,0.069-0.114,0.104  c-0.059,0.055-0.115,0.112-0.17,0.172c-0.044,0.05-0.091,0.095-0.133,0.146c-0.039,0.048-0.073,0.1-0.108,0.148  c-0.022,0.029-0.047,0.052-0.067,0.082L31.678,54.693c-0.713,1.068-0.671,2.418-0.003,3.423l-6.477,9.607  c-0.161-0.027-0.324-0.05-0.488-0.05c-0.809,0-1.605,0.326-2.179,0.902c-0.574,0.572-0.907,1.37-0.907,2.185  c0,0.81,0.333,1.605,0.907,2.178c0.574,0.574,1.37,0.909,2.179,0.909c0.815,0,1.612-0.335,2.186-0.909  c0.574-0.572,0.901-1.368,0.901-2.178c0-0.609-0.184-1.21-0.517-1.713l6.473-9.596c0.163,0.025,0.326,0.043,0.489,0.043  c0.997,0,1.975-0.482,2.57-1.374l8-11.968l1.536,18.901c0.107,1.26,0.961,2.269,2.086,2.652l1.376,15.786  c-0.259,0.14-0.506,0.306-0.716,0.515c-0.573,0.574-0.9,1.366-0.9,2.18c0,0.814,0.327,1.612,0.9,2.185  c0.574,0.574,1.371,0.902,2.186,0.902c0.811,0,1.605-0.328,2.18-0.902c0.574-0.572,0.908-1.37,0.908-2.185  c0-0.809-0.334-1.605-0.908-2.18c-0.334-0.333-0.748-0.574-1.189-0.727l-1.375-15.775c1.043-0.569,1.711-1.715,1.604-2.974  l-1.066-13.4l2.256,3.986c0.564,1.012,1.613,1.583,2.697,1.583c0.094,0,0.189-0.01,0.285-0.018l5.342,10.339  c-0.404,0.534-0.641,1.19-0.641,1.866c0,0.815,0.326,1.606,0.902,2.18c0.574,0.574,1.369,0.907,2.184,0.907  c0.816,0,1.605-0.333,2.18-0.907c0.574-0.573,0.908-1.371,0.908-2.18C67.545,68.072,67.211,67.278,66.637,66.703z M42.485,3.014  c0.392-0.412,1.11-0.676,1.872-0.688l0.06,0c1.265,0,2.141,0.631,2.191,1.233L46.594,3.77c-0.034,0.156-0.122,0.31-0.263,0.458  c-0.393,0.411-1.11,0.674-1.873,0.687L44.4,4.916c-1.179,0-2.021-0.55-2.169-1.112l-0.005-0.342  C42.262,3.308,42.347,3.158,42.485,3.014z M41.559,30.237c-0.809,0.419-4.028-0.3-6.309-3.8c-1.964-3.014-1.239-6.527-0.542-7.029  s3.969,0.286,6.073,3.248C43.156,26,42.368,29.818,41.559,30.237z M43.628,13.183c-0.557,0-1.099,0.078-1.627,0.237l-0.532,0.173  c-0.046,0.015-0.089,0.035-0.13,0.059l-4.241,2.527V9.344l19.175,6.944v14.894l-7.877-3.371l0.578-0.333  c0.018-0.011,0.037-0.022,0.055-0.035l0.596-0.43c0.014-0.01,0.025-0.02,0.039-0.031c2.451-2.077,2.75-6.197,0.699-9.583  C48.788,14.798,46.207,13.183,43.628,13.183z"/><text x="0" y="105" fill="#000000" font-size="5px" font-weight="bold" font-family="'Helvetica Neue', Helvetica, Arial-Unicode, Arial, Sans-serif">Created by Phu Tran</text><text x="0" y="110" fill="#000000" font-size="5px" font-weight="bold" font-family="'Helvetica Neue', Helvetica, Arial-Unicode, Arial, Sans-serif">from the Noun Project</text></svg>