<svg xmlns="http://www.w3.org/2000/svg" xmlns:xlink="http://www.w3.org/1999/xlink" version="1.1" x="0px" y="0px" viewBox="0 0 100 125" enable-background="new 0 0 100 100" xml:space="preserve"><g><polygon points="43.571,75.714 43.571,69.286 30.714,69.286 30.714,56.429 24.286,56.429 24.286,69.286 24.286,75.714    30.714,75.714  "/><polygon points="69.286,43.571 75.714,43.571 75.714,30.714 75.714,24.286 69.286,24.286 56.429,24.286 56.429,30.714    69.286,30.714  "/><polygon points="30.714,30.714 43.571,30.714 43.571,24.286 30.714,24.286 24.286,24.286 24.286,30.714 24.286,43.571    30.714,43.571  "/><polygon points="75.714,75.714 75.714,69.286 75.714,56.429 69.286,56.429 69.286,69.286 56.429,69.286 56.429,75.714    69.286,75.714  "/><path d="M14.643,95h70.715C91.578,95,95,91.578,95,85.357V14.643C95,8.422,91.578,5,85.357,5H14.643C8.422,5,5,8.422,5,14.643   v70.715C5,91.578,8.422,95,14.643,95z M14.643,17.857c0-1.598,1.617-3.215,3.215-3.215h64.285c1.598,0,3.215,1.617,3.215,3.215   v64.285c0,1.598-1.617,3.215-3.215,3.215H17.857c-1.598,0-3.215-1.617-3.215-3.215V17.857z"/></g><text x="0" y="115" fill="#000000" font-size="5px" font-weight="bold" font-family="'Helvetica Neue', Helvetica, Arial-Unicode, Arial, Sans-serif">Created by Claudio Gomboli</text><text x="0" y="120" fill="#000000" font-size="5px" font-weight="bold" font-family="'Helvetica Neue', Helvetica, Arial-Unicode, Arial, Sans-serif">from the Noun Project</text></svg>