<svg xmlns="http://www.w3.org/2000/svg" xmlns:xlink="http://www.w3.org/1999/xlink" version="1.1" x="0px" y="0px" viewBox="0 0 100 125" enable-background="new 0 0 100 100" xml:space="preserve"><path fill="#000000" d="M43.319,1.109"/><g><path fill="#000000" d="M52.219,98.893"/></g><path fill="#000000" d="M54.554,101.86"/><g><path d="M81.104,32.427v-2.652c0-1.1-0.9-2-2.001-2h-4.892c-0.814,0-1.513,0.496-1.825,1.199c-0.912-0.703-2.232-1.199-3.502-1.199   H39.994c-1.833,0-3.333,1.001-3.333,2.223c0,0.962-0.935,1.778-2.223,2.085v-2.085H21.11v2.223h-1.114   c-1.833,0-3.333,1.5-3.333,3.333v8.887v24.445c0,1.832,1.5,3.332,3.333,3.332h16.14c3.257,4.058,8.251,6.66,13.86,6.66   c5.608,0,10.6-2.603,13.859-6.66H79.99c1.833,0,3.332-1.5,3.332-3.332V44.44v-8.887C83.322,34.113,82.391,32.891,81.104,32.427z    M38.998,30.351c0.179-0.101,0.526-0.225,0.997-0.225h28.891c1.084,0,2.149,0.613,2.338,0.923c1.157,2.313,4.168,3.523,6.545,3.523   h2.223c0.533,0,0.98,0.45,0.98,0.981v8.887c0,0.531-0.447,0.981-0.98,0.981H58.353c-2.492-1.33-5.335-2.09-8.357-2.09   c-3.022,0-5.866,0.76-8.357,2.09h-1.644H33.33H19.996c-0.533,0-0.981-0.45-0.981-0.981v-8.887c0-0.531,0.448-0.981,0.981-0.981   H33.33C36.37,34.572,38.781,32.744,38.998,30.351z M49.996,72.878c-6.493,0-11.777-5.284-11.777-11.776   c0-6.49,5.284-11.772,11.777-11.772c6.492,0,11.777,5.282,11.777,11.772C61.772,67.594,56.487,72.878,49.996,72.878z"/><path d="M43.995,41.108h12c0.365,0,0.666-0.301,0.666-0.666v-7.556c0-0.365-0.301-0.666-0.666-0.666h-12   c-0.365,0-0.666,0.301-0.666,0.666v7.556C43.329,40.807,43.629,41.108,43.995,41.108z"/><path d="M59.549,36.667h9.778c0.365,0,0.666-0.301,0.666-0.666v-3.114c0-0.365-0.301-0.666-0.666-0.666h-9.778   c-0.365,0-0.666,0.301-0.666,0.666V36C58.883,36.366,59.184,36.667,59.549,36.667z"/></g><text x="0" y="115" fill="#000000" font-size="5px" font-weight="bold" font-family="'Helvetica Neue', Helvetica, Arial-Unicode, Arial, Sans-serif">Created by Ed Piel</text><text x="0" y="120" fill="#000000" font-size="5px" font-weight="bold" font-family="'Helvetica Neue', Helvetica, Arial-Unicode, Arial, Sans-serif">from the Noun Project</text></svg>